<?xml version="1.0" encoding="UTF-8"?>
<svg version="1.1" viewBox="0 0 816 900" width="1280" height="1280" xmlns="http://www.w3.org/2000/svg">
<path transform="translate(188,267)" d="m0 0h32l29 5 19 5 19 7 21 9 19 10 19 12 12 8 10 7 7 5-2 4-9 8-17 11h-5l-13-8-25-15-21-11-22-9-25-6-21-3h-23l-25 4-16 5-12 5-11 7-10 8-8 9-8 13-6 15-3 18 1 16 3 12 6 11 8 10 7 7 13 8 19 9 23 6 6 1h31l20-3 17-4 27-9 31-15 22-14 18-13 18-14 13-10 11-9 14-11 18-14 20-15 17-12 15-10 29-17 23-11 18-7 27-7 14-2h29l22 3 26 6 23 10 14 7 10 7 13 10 11 9 10 11 13 18 9 17 8 20 5 18 4 23 1 14v22l-2 20-4 22-9 31-8 21-10 23-13 24-11 17-10 14-14 18-13 16-12 14-10 10-7 8-15 14-16 16-8 7-11 10-30 23-16 12-23 16-34 22-19 12-23 13-22 12-17 7-11-1-20-8-24-12-20-12-18-11-12-8-18-13-21-16-9-7-16-13-10-9-15-14-17-16-30-30-7-8-16-17-9-11-13-15-11-14-12-16-10-14-13-18-9-14-3-7v-7l3-7 8-7 5-2 7 1 7 4 8 8 9 14 14 18 9 12 13 17 11 14 11 13 9 11 7 7 7 8 16 17 26 26 8 7 14 12 17 14 14 11 12 10 18 13 17 12 18 11 13 8 26 14 8 4 7 1 16-8 19-11 22-13 16-10 12-8 22-15 21-16 12-9 18-14 13-11 12-11 8-7 10-9 13-14 7-8 10-11 7-8 14-18 11-15 14-21 14-25 9-19 6-15 8-26 4-21 2-20v-24l-4-27-3-12-9-22-9-14-8-10-10-11-13-10-16-9-19-8-19-5-18-3h-24l-20 3-21 6-24 10-27 15-27 18-15 11-18 14-15 12-12 9-16 13-17 13-19 14-27 18-22 12-23 11-30 10-24 5-23 3h-27l-25-4-15-3-21-9-18-10-12-11-7-6-11-14-7-11-8-20-3-16v-25l2-14 5-15 10-19 8-11 12-13 10-9 14-10 17-8 19-7 20-5z" fill="#F0526D"/>
<path transform="translate(610,24)" d="m0 0h22l16 4 16 8 12 7 11 10 9 11 8 16 6 18 1 5v27l-5 16-7 16-7 11-9 10-9 8-14 8-19 7-14 2h-19l-17-3-16-6-11-7-10-8-10-12-9-15-6-15-4-16v-13l4-22 6-15 6-11 8-10 5-6 17-13 13-6 13-4zm-3 35-11 3-10 5-10 9-7 8-6 12-3 13v16l5 15 7 12 7 7 13 9 10 4 13 2 16-1 10-3 10-5 10-8 7-9 4-8 3-10 1-7v-13l-3-14-6-12-10-11-13-9-16-5z" fill="#F0526E"/>
<path transform="translate(155,88)" d="m0 0 17 1 13 4 11 6 13 12 9 14 5 12 2 13v10l-2 11-7 16-7 9-7 7-11 7-12 5-14 3h-17l-16-5-10-5-10-9-8-9-7-14-3-11v-21l4-15 6-11 8-11h2v-2l12-9 14-6zm-2 31-10 3-7 5-8 10-3 8v10l2 12 6 10 9 7 11 4h9l13-4 8-6 7-9 3-10v-13l-4-10-9-10-9-5-8-2z" fill="#F0536E"/>
<path transform="translate(495,397)" d="m0 0 6 1 33 11 25 7 36 8 14 3 5 4 4 8v8l-3 8-6 6-4 1h-18l-21-4-38-10-25-8-28-11-12-7 2-4 19-14z" fill="#F0526E"/>
</svg>
